<svg version="1.1" id="Layer_1" xmlns="http://www.w3.org/2000/svg" xmlns:xlink="http://www.w3.org/1999/xlink" x="0px" y="0px"
	 width="100%" viewBox="0 0 90 92" enable-background="new 0 0 90 92" xml:space="preserve">
<path fill="#FBD125" opacity="1.000000" stroke="none" 
	d="
M1.000000,39.000000 
	C1.000000,32.645603 1.000000,26.291204 1.326623,19.327679 
	C5.627156,16.630775 9.601066,14.543002 13.886347,12.421791 
	C14.772426,12.149733 15.347135,11.911109 16.282818,11.724190 
	C24.436781,8.878537 32.229771,5.981180 40.400558,3.104806 
	C41.517220,2.990500 42.256084,2.855210 43.454411,2.789982 
	C48.272873,2.918471 52.631874,2.976898 57.241611,3.283484 
	C59.352631,3.915094 61.212914,4.298544 63.380669,4.795058 
	C64.121422,4.952951 64.554688,4.997781 65.193344,5.310541 
	C66.826546,6.403956 68.168045,7.476047 69.697433,8.011370 
	C75.671951,10.102592 76.906021,14.515101 76.283867,20.205498 
	C76.000763,22.794836 76.412056,25.460096 76.377853,28.484768 
	C76.198280,30.260225 76.149216,31.641829 75.806053,33.261322 
	C75.417572,35.018669 75.323189,36.538128 75.132080,38.371204 
	C75.018791,39.120529 75.002243,39.556229 74.735756,40.261032 
	C73.974754,42.454193 73.670471,44.464645 72.910156,46.284588 
	C71.258171,50.238934 69.534660,54.184841 67.471619,57.931118 
	C66.948463,58.881104 65.041092,59.068810 63.769772,59.606789 
	C63.494869,58.389324 62.891144,57.136055 63.018929,55.962437 
	C63.232857,53.997723 63.979965,52.097675 64.386520,50.146210 
	C66.433540,40.320450 67.280876,30.458910 65.319466,20.495548 
	C63.063839,9.037636 53.469940,5.360156 43.928524,12.327456 
	C41.821579,13.865983 39.673412,15.348055 38.160809,16.419405 
	C38.439888,18.392481 38.687035,20.016413 38.896790,21.645157 
	C39.616016,27.229870 39.482704,33.097382 41.236362,38.334011 
	C43.669712,45.600304 47.516079,52.393406 50.786072,59.751335 
	C50.725399,61.551151 50.636150,62.988724 50.267181,64.583771 
	C49.646790,65.488693 49.306122,66.236145 48.747597,67.138138 
	C48.293961,67.762794 48.058174,68.232910 47.494339,68.797195 
	C44.715584,71.335487 42.560635,71.074814 40.731922,68.159134 
	C39.413658,66.057304 37.813347,64.061913 36.893005,61.794147 
	C34.104706,54.923630 31.586071,47.943672 28.972805,40.679169 
	C28.895447,39.926144 28.807650,39.500298 28.818344,38.677361 
	C28.603136,36.519695 28.289438,34.759117 28.005644,32.671078 
	C27.959414,31.914471 27.883278,31.485331 27.913818,30.626282 
	C28.356222,26.756710 28.720503,23.319508 29.017323,19.876490 
	C29.205446,17.694309 28.813524,16.074257 25.652695,17.428680 
	C24.560694,17.773161 23.845715,18.047382 22.769480,18.248238 
	C16.821980,20.019093 11.211576,22.578220 11.461774,29.305466 
	C11.669986,34.903812 13.806845,40.430424 15.116600,46.339245 
	C15.846519,48.424255 16.549269,50.158833 17.192211,52.202385 
	C17.598267,53.155319 18.064131,53.799274 18.598869,54.703484 
	C18.807878,55.293961 18.948011,55.624191 19.065319,56.316994 
	C20.603884,59.224434 22.165274,61.769302 23.790306,64.487701 
	C23.853952,64.661240 24.071417,64.960182 24.066692,65.279007 
	C24.637058,66.148132 25.212151,66.698425 25.973156,67.440842 
	C26.450241,68.080681 26.741415,68.528389 27.003197,69.306931 
	C27.025925,70.077248 27.078043,70.516731 26.722652,70.969200 
	C24.053537,70.221527 21.791931,69.460884 19.106281,68.557625 
	C19.787821,70.831467 20.403545,72.885727 20.695993,74.845299 
	C17.391846,70.790825 13.796094,67.146729 11.565296,62.801834 
	C7.606879,55.092079 4.476700,46.957081 1.000000,39.000000 
z"/>
<path fill="#FEFEF8" opacity="1.000000" stroke="none" 
	d="
M76.100159,33.023434 
	C76.149216,31.641829 76.198280,30.260225 76.707863,28.314722 
	C77.441391,23.844236 77.893532,19.940125 77.947556,16.030510 
	C78.040352,9.315444 72.129112,4.405375 64.987961,5.042611 
	C64.554688,4.997781 64.121422,4.952951 63.280624,4.479053 
	C60.912357,3.711765 58.951614,3.373545 56.990871,3.035325 
	C52.631874,2.976898 48.272873,2.918471 43.453842,2.503641 
	C42.995872,1.764825 42.997936,1.382413 43.000000,1.000000 
	C58.888531,1.000000 74.777061,1.000000 91.000000,1.000000 
	C91.000000,6.014250 91.000000,11.035927 90.632217,16.625893 
	C85.072884,19.309128 87.683754,23.595051 87.383644,27.499859 
	C87.199966,29.270351 87.139366,30.646240 86.823044,32.291061 
	C86.101295,35.372494 85.635269,38.184998 85.088318,41.250393 
	C85.007416,41.680313 85.007446,41.857334 84.847046,42.124817 
	C84.635071,42.326984 84.516563,42.461151 84.545029,42.546024 
	C84.619370,42.767639 84.758026,42.967678 84.787979,43.390556 
	C84.617958,43.906540 84.609543,44.210468 84.396545,44.712456 
	C83.903313,45.961102 83.693184,47.013866 83.320168,48.418701 
	C79.775078,55.185814 76.392883,61.600853 72.695938,68.063782 
	C71.605301,68.755730 70.829422,69.399788 70.029694,70.020615 
	C70.005844,69.997375 70.036201,70.056229 69.623871,70.025978 
	C65.930328,69.756798 62.612320,69.743362 59.378300,69.215424 
	C56.152542,68.688850 54.624725,69.596939 54.760963,73.175598 
	C54.227142,73.716957 53.842682,74.050011 53.066902,74.304420 
	C49.780376,75.167854 46.885174,76.109940 44.036995,76.719841 
	C44.723976,75.261841 45.363937,74.136017 46.152504,72.700989 
	C46.808205,71.162186 47.315292,69.932602 47.822384,68.703026 
	C48.058174,68.232910 48.293961,67.762794 49.113712,67.086212 
	C49.980755,66.061928 50.263828,65.244118 50.546906,64.426300 
	C50.636150,62.988724 50.725399,61.551151 50.841660,59.355881 
	C50.551849,57.076706 50.235027,55.555229 50.246487,53.999901 
	C51.382862,53.644058 52.190952,53.322067 53.271507,53.201492 
	C56.033184,56.254086 58.522396,59.105263 61.356773,61.998466 
	C62.974213,62.625938 64.246490,63.211388 66.240562,64.128983 
	C68.886070,59.168552 71.786873,54.627739 73.749176,49.712273 
	C74.921516,46.775623 74.623024,43.251812 74.985687,39.991932 
	C75.002243,39.556229 75.018791,39.120529 75.462845,38.282688 
	C75.960281,36.261513 76.030220,34.642471 76.100159,33.023434 
z"/>
<path fill="#FFFEF6" opacity="1.000000" stroke="none" 
	d="
M91.000000,33.000000 
	C91.000000,52.913830 91.000000,72.827660 91.000000,93.000000 
	C77.313522,93.000000 63.625420,93.000000 49.597839,92.685593 
	C58.648560,85.881042 68.385437,79.797279 75.485596,70.101402 
	C78.934814,64.407852 82.075050,58.873421 85.449738,53.065639 
	C85.843369,51.862610 86.002548,50.932938 86.335083,49.671741 
	C86.974266,46.881802 87.440102,44.423386 88.178024,41.706200 
	C89.300079,38.631622 90.150040,35.815811 91.000000,33.000000 
z"/>
<path fill="#FEFEF6" opacity="1.000000" stroke="none" 
	d="
M1.000000,39.468658 
	C4.476700,46.957081 7.606879,55.092079 11.565296,62.801834 
	C13.796094,67.146729 17.391846,70.790825 20.692869,74.869904 
	C21.013021,74.989189 21.059156,74.975922 21.139706,75.248268 
	C21.814930,75.919640 22.409607,76.318657 23.208851,76.997917 
	C26.304485,79.493469 29.148783,81.773376 32.097744,83.908730 
	C36.358707,86.994102 40.695538,89.974701 45.000000,93.000000 
	C30.399115,93.000000 15.798230,93.000000 1.000000,93.000000 
	C1.000000,75.312927 1.000000,57.625122 1.000000,39.468658 
z"/>
<path fill="#FBCD1E" opacity="1.000000" stroke="none" 
	d="
M45.399994,93.000000 
	C40.695538,89.974701 36.358707,86.994102 32.097744,83.908730 
	C29.148783,81.773376 26.304485,79.493469 23.154968,76.711884 
	C22.284065,75.755722 21.671610,75.365822 21.059155,74.975922 
	C21.059156,74.975922 21.013021,74.989189 21.016146,74.964584 
	C20.403545,72.885727 19.787821,70.831467 19.106281,68.557625 
	C21.791931,69.460884 24.053537,70.221527 26.989277,71.103798 
	C28.458054,71.795876 29.252701,72.366341 30.200354,73.209526 
	C31.171822,74.104103 31.990282,74.725960 32.851524,75.619522 
	C33.290794,76.247177 33.687279,76.603127 34.111923,77.282806 
	C34.800297,77.938690 35.460514,78.270836 36.397827,78.777222 
	C37.288223,79.176880 37.901531,79.402290 38.745193,79.933716 
	C43.231079,82.383110 47.025372,81.052139 50.981766,78.645668 
	C51.537582,78.089493 51.793819,77.573257 52.206848,76.794891 
	C52.728497,75.816200 53.093361,75.099640 53.458225,74.383072 
	C53.842682,74.050011 54.227142,73.716957 55.110844,73.069710 
	C58.043514,72.561028 60.514149,72.564674 62.899994,72.116730 
	C65.322296,71.661934 67.660927,70.761497 70.036201,70.056229 
	C70.036201,70.056229 70.005844,69.997375 70.365257,70.041710 
	C71.513588,69.741325 72.302498,69.396606 73.412491,69.077133 
	C74.214584,69.488441 74.695595,69.874481 75.176605,70.260529 
	C68.385437,79.797279 58.648560,85.881042 49.129181,92.685593 
	C47.933331,93.000000 46.866661,93.000000 45.399994,93.000000 
z"/>
<path fill="#FEFEFD" opacity="1.000000" stroke="none" 
	d="
M42.531342,1.000000 
	C42.997936,1.382413 42.995872,1.764825 42.994377,2.433579 
	C42.256084,2.855210 41.517220,2.990500 40.157825,2.812582 
	C30.633766,2.901024 22.754187,5.938738 15.921844,11.672486 
	C15.347135,11.911109 14.772426,12.149733 13.482460,12.306761 
	C8.844802,13.816777 4.922401,15.408389 1.000000,17.000000 
	C1.000000,11.707230 1.000000,6.414459 1.000000,1.000000 
	C14.687359,1.000000 28.375021,1.000000 42.531342,1.000000 
z"/>
<path fill="#F5D65F" opacity="1.000000" stroke="none" 
	d="
M91.000000,32.600006 
	C90.150040,35.815811 89.300079,38.631622 87.962250,41.577518 
	C86.706009,41.470901 85.937622,41.234200 85.169243,40.997498 
	C85.635269,38.184998 86.101295,35.372494 87.101463,32.380371 
	C88.757080,31.133831 89.878540,30.066917 91.000000,29.000002 
	C91.000000,30.066669 91.000000,31.133339 91.000000,32.600006 
z"/>
<path fill="#F5C929" opacity="1.000000" stroke="none" 
	d="
M91.000000,28.545891 
	C89.878540,30.066917 88.757080,31.133831 87.357193,32.111435 
	C87.139366,30.646240 87.199966,29.270351 87.700958,27.340302 
	C89.094238,24.190760 90.047119,21.595381 91.000000,19.000000 
	C91.000000,22.030594 91.000000,25.061186 91.000000,28.545891 
z"/>
<path fill="#FFF9CD" opacity="1.000000" stroke="none" 
	d="
M1.000000,17.333332 
	C4.922401,15.408389 8.844802,13.816777 13.171089,12.340197 
	C9.601066,14.543002 5.627156,16.630775 1.326623,18.859276 
	C1.000000,18.555555 1.000000,18.111111 1.000000,17.333332 
z"/>
<path fill="#F5D65F" opacity="1.000000" stroke="none" 
	d="
M91.000000,18.666668 
	C90.047119,21.595381 89.094238,24.190760 87.824043,26.945698 
	C87.683754,23.595051 85.072884,19.309128 90.632217,17.097092 
	C91.000000,17.444445 91.000000,17.888889 91.000000,18.666668 
z"/>
<path fill="#FDFEFC" opacity="1.000000" stroke="none" 
	d="
M32.808743,75.347816 
	C31.990282,74.725960 31.171822,74.104103 30.202276,72.853928 
	C29.044991,71.142433 28.038790,70.059273 27.032589,68.976105 
	C26.741415,68.528389 26.450241,68.080681 26.012169,67.101883 
	C25.267321,66.033928 24.669369,65.497055 24.071415,64.960182 
	C24.071417,64.960182 23.853952,64.661240 23.870636,64.099419 
	C22.287596,61.009869 20.687870,58.482143 19.088144,55.954418 
	C18.948011,55.624191 18.807878,55.293961 18.717499,54.374748 
	C18.262173,53.154980 17.757095,52.524197 17.252018,51.893410 
	C16.549269,50.158833 15.846519,48.424255 15.354399,46.103531 
	C14.790175,41.484886 14.022008,37.451080 13.238869,33.420189 
	C12.117854,27.650234 13.726757,24.605597 19.052389,21.739634 
	C20.581997,20.916485 21.780449,19.477972 23.130737,18.321606 
	C23.845715,18.047382 24.560694,17.773161 25.639114,17.947803 
	C26.011801,20.821049 25.799387,23.273514 26.101873,25.660736 
	C26.335142,27.501688 27.214853,29.260729 27.807140,31.056189 
	C27.883278,31.485331 27.959414,31.914471 27.652920,32.720428 
	C24.642563,35.844093 26.365599,37.535812 28.719852,39.074455 
	C28.807650,39.500298 28.895447,39.926144 28.703203,40.938644 
	C28.316936,42.502918 27.867971,43.598068 28.156775,44.440208 
	C31.553696,54.345501 33.586590,64.883057 40.817867,73.222748 
	C37.991627,74.114227 35.400185,74.731026 32.808743,75.347816 
z"/>
<path fill="#FEF9C8" opacity="1.000000" stroke="none" 
	d="
M49.918205,54.033749 
	C50.235027,55.555229 50.551849,57.076706 50.813084,58.993637 
	C47.516079,52.393406 43.669712,45.600304 41.236362,38.334011 
	C39.482704,33.097382 39.616016,27.229870 38.896790,21.645157 
	C38.687035,20.016413 38.439888,18.392481 38.160809,16.419405 
	C39.673412,15.348055 41.821579,13.865983 43.928524,12.327456 
	C53.469940,5.360156 63.063839,9.037636 65.319466,20.495548 
	C67.280876,30.458910 66.433540,40.320450 64.386520,50.146210 
	C63.979965,52.097675 63.232857,53.997723 63.018929,55.962437 
	C62.891144,57.136055 63.494869,58.389324 63.769772,59.606789 
	C65.041092,59.068810 66.948463,58.881104 67.471619,57.931118 
	C69.534660,54.184841 71.258171,50.238934 72.910156,46.284588 
	C73.670471,44.464645 73.974754,42.454193 74.735756,40.261032 
	C74.623024,43.251812 74.921516,46.775623 73.749176,49.712273 
	C71.786873,54.627739 68.886070,59.168552 66.240562,64.128983 
	C64.246490,63.211388 62.974213,62.625938 61.354862,61.625916 
	C60.999023,60.462711 60.990257,59.714081 60.941162,58.611557 
	C60.758057,57.295582 60.193993,56.138214 60.535824,55.400764 
	C65.504349,44.681957 64.083939,33.288944 63.879776,22.109419 
	C63.758289,15.456694 58.175945,10.810162 52.113289,11.131107 
	C45.791908,11.465751 40.862236,16.705204 41.008533,23.262815 
	C41.089397,26.887384 41.012192,30.705017 42.108215,34.077492 
	C44.312248,40.859344 47.270927,47.395947 49.918205,54.033749 
z"/>
<path fill="#FEF9C8" opacity="1.000000" stroke="none" 
	d="
M41.052670,72.948067 
	C33.586590,64.883057 31.553696,54.345501 28.156775,44.440208 
	C27.867971,43.598068 28.316936,42.502918 28.692768,41.265831 
	C31.586071,47.943672 34.104706,54.923630 36.893005,61.794147 
	C37.813347,64.061913 39.413658,66.057304 40.731922,68.159134 
	C42.560635,71.074814 44.715584,71.335487 47.494331,68.797195 
	C47.315292,69.932602 46.808205,71.162186 45.738541,72.697845 
	C43.801529,72.985298 42.427101,72.966682 41.052670,72.948067 
z"/>
<path fill="#FEF9C8" opacity="1.000000" stroke="none" 
	d="
M65.193344,5.310541 
	C72.129112,4.405375 78.040352,9.315444 77.947556,16.030510 
	C77.893532,19.940125 77.441391,23.844236 76.838379,27.920872 
	C76.412056,25.460096 76.000763,22.794836 76.283867,20.205498 
	C76.906021,14.515101 75.671951,10.102592 69.697433,8.011370 
	C68.168045,7.476047 66.826546,6.403956 65.193344,5.310541 
z"/>
<path fill="#FEF6B4" opacity="1.000000" stroke="none" 
	d="
M22.769480,18.248238 
	C21.780449,19.477972 20.581997,20.916485 19.052389,21.739634 
	C13.726757,24.605597 12.117854,27.650234 13.238869,33.420189 
	C14.022008,37.451080 14.790175,41.484886 15.327230,45.753098 
	C13.806845,40.430424 11.669986,34.903812 11.461774,29.305466 
	C11.211576,22.578220 16.821980,20.019093 22.769480,18.248238 
z"/>
<path fill="#FFF9CD" opacity="1.000000" stroke="none" 
	d="
M16.282818,11.724190 
	C22.754187,5.938738 30.633766,2.901024 39.780025,2.791598 
	C32.229771,5.981180 24.436781,8.878537 16.282818,11.724190 
z"/>
<path fill="#FEF9C8" opacity="1.000000" stroke="none" 
	d="
M27.913818,30.626282 
	C27.214853,29.260729 26.335142,27.501688 26.101873,25.660736 
	C25.799387,23.273514 26.011801,20.821049 26.016138,17.877544 
	C28.813524,16.074257 29.205446,17.694309 29.017323,19.876490 
	C28.720503,23.319508 28.356222,26.756710 27.913818,30.626282 
z"/>
<path fill="#FEF6B4" opacity="1.000000" stroke="none" 
	d="
M19.065319,56.316994 
	C20.687870,58.482143 22.287596,61.009869 23.806992,63.925880 
	C22.165274,61.769302 20.603884,59.224434 19.065319,56.316994 
z"/>
<path fill="#FEF9C8" opacity="1.000000" stroke="none" 
	d="
M28.818344,38.677361 
	C26.365599,37.535812 24.642563,35.844093 27.623014,33.047897 
	C28.289438,34.759117 28.603136,36.519695 28.818344,38.677361 
z"/>
<path fill="#FEF9C8" opacity="1.000000" stroke="none" 
	d="
M75.806046,33.261322 
	C76.030220,34.642471 75.960281,36.261513 75.559586,37.969067 
	C75.323189,36.538128 75.417572,35.018669 75.806046,33.261322 
z"/>
<path fill="#FEF9C8" opacity="1.000000" stroke="none" 
	d="
M57.241611,3.283484 
	C58.951614,3.373545 60.912357,3.711765 62.973145,4.365991 
	C61.212914,4.298544 59.352631,3.915094 57.241611,3.283484 
z"/>
<path fill="#FEF6B4" opacity="1.000000" stroke="none" 
	d="
M27.003197,69.306931 
	C28.038790,70.059273 29.044991,71.142433 30.049269,72.581200 
	C29.252701,72.366341 28.458054,71.795876 27.396784,71.090820 
	C27.078043,70.516731 27.025925,70.077248 27.003197,69.306931 
z"/>
<path fill="#FEF9C8" opacity="1.000000" stroke="none" 
	d="
M50.267181,64.583771 
	C50.263828,65.244118 49.980755,66.061928 49.331566,66.931671 
	C49.306122,66.236145 49.646790,65.488693 50.267181,64.583771 
z"/>
<path fill="#FEF6B4" opacity="1.000000" stroke="none" 
	d="
M24.066690,65.279007 
	C24.669369,65.497055 25.267321,66.033928 25.826258,66.909760 
	C25.212151,66.698425 24.637058,66.148132 24.066690,65.279007 
z"/>
<path fill="#FEF6B4" opacity="1.000000" stroke="none" 
	d="
M17.192211,52.202385 
	C17.757095,52.524197 18.262173,53.154980 18.648623,54.114498 
	C18.064131,53.799274 17.598267,53.155319 17.192211,52.202385 
z"/>
<path fill="#FEFEFB" opacity="1.000000" stroke="none" 
	d="
M50.246487,53.999901 
	C47.270927,47.395947 44.312248,40.859344 42.108215,34.077492 
	C41.012192,30.705017 41.089397,26.887384 41.008533,23.262815 
	C40.862236,16.705204 45.791908,11.465751 52.113289,11.131107 
	C58.175945,10.810162 63.758289,15.456694 63.879776,22.109419 
	C64.083939,33.288944 65.504349,44.681957 60.535824,55.400764 
	C60.193993,56.138214 60.758057,57.295582 60.595886,58.574738 
	C56.295834,54.713310 53.545822,50.091835 55.000664,43.528934 
	C54.995449,40.065468 54.975189,37.052807 54.980690,33.642689 
	C54.344967,31.826191 53.683479,30.407152 53.013783,28.992405 
	C53.005573,28.996696 53.011547,28.971067 52.965019,28.646008 
	C50.875801,28.436306 49.837807,29.240540 50.136486,32.367496 
	C50.796097,39.273159 52.010803,46.125805 52.999046,53.000080 
	C52.190952,53.322067 51.382862,53.644058 50.246487,53.999901 
z"/>
<path fill="#F7D239" opacity="1.000000" stroke="none" 
	d="
M85.088318,41.250393 
	C85.937622,41.234200 86.706009,41.470901 87.690163,41.836285 
	C87.440102,44.423386 86.974266,46.881802 86.024979,49.883244 
	C85.432777,51.397175 85.324036,52.368084 85.215286,53.338993 
	C82.075050,58.873421 78.934814,64.407852 75.485596,70.101402 
	C74.695595,69.874481 74.214584,69.488441 73.394760,68.817703 
	C73.040848,68.360641 73.025764,68.188263 73.010689,68.015892 
	C76.392883,61.600853 79.775078,55.185814 83.636887,48.290112 
	C84.304214,46.711823 84.491936,45.614201 84.679657,44.516575 
	C84.609543,44.210468 84.617958,43.906540 84.856400,43.108585 
	C85.007744,42.419708 85.007607,42.227028 85.007477,42.034351 
	C85.007446,41.857334 85.007416,41.680313 85.088318,41.250393 
z"/>
<path fill="#FAF8D0" opacity="1.000000" stroke="none" 
	d="
M54.985622,43.979740 
	C53.545822,50.091835 56.295834,54.713310 60.636215,58.928631 
	C60.990257,59.714081 60.999023,60.462711 61.009701,61.583893 
	C58.522396,59.105263 56.033184,56.254086 53.271507,53.201492 
	C52.010803,46.125805 50.796097,39.273159 50.136486,32.367496 
	C49.837807,29.240540 50.875801,28.436306 52.672352,28.937803 
	C51.729557,34.637997 51.244289,39.683826 54.985622,43.979740 
z"/>
<path fill="#FBFCF0" opacity="1.000000" stroke="none" 
	d="
M40.817867,73.222748 
	C42.427101,72.966682 43.801529,72.985298 45.589928,73.007065 
	C45.363937,74.136017 44.723976,75.261841 43.657433,76.727898 
	C41.658844,77.921326 40.086842,78.774506 38.514839,79.627701 
	C37.901531,79.402290 37.288223,79.176880 36.326370,78.496918 
	C35.346470,77.681267 34.715118,77.320168 34.083763,76.959076 
	C33.687279,76.603127 33.290794,76.247177 32.851524,75.619522 
	C35.400185,74.731026 37.991627,74.114227 40.817867,73.222748 
z"/>
<path fill="#FEF6B4" opacity="1.000000" stroke="none" 
	d="
M38.745193,79.933716 
	C40.086842,78.774506 41.658844,77.921326 43.610413,77.060081 
	C46.885174,76.109940 49.780376,75.167854 53.066902,74.304420 
	C53.093361,75.099640 52.728497,75.816200 51.947937,76.902283 
	C51.248890,77.743057 50.965538,78.214325 50.682182,78.685600 
	C47.025372,81.052139 43.231079,82.383110 38.745193,79.933716 
z"/>
<path fill="#F8DF5C" opacity="1.000000" stroke="none" 
	d="
M69.623871,70.025978 
	C67.660927,70.761497 65.322296,71.661934 62.899994,72.116730 
	C60.514149,72.564674 58.043514,72.561028 55.260201,72.861420 
	C54.624725,69.596939 56.152542,68.688850 59.378300,69.215424 
	C62.612320,69.743362 65.930328,69.756798 69.623871,70.025978 
z"/>
<path fill="#F5D65F" opacity="1.000000" stroke="none" 
	d="
M84.396545,44.712456 
	C84.491936,45.614201 84.304214,46.711823 83.799774,47.938038 
	C83.693184,47.013866 83.903313,45.961102 84.396545,44.712456 
z"/>
<path fill="#F8DF5C" opacity="1.000000" stroke="none" 
	d="
M72.695938,68.063782 
	C73.025764,68.188263 73.040848,68.360641 73.073677,68.792450 
	C72.302498,69.396606 71.513588,69.741325 70.389107,70.064941 
	C70.829422,69.399788 71.605301,68.755730 72.695938,68.063782 
z"/>
<path fill="#F5D65F" opacity="1.000000" stroke="none" 
	d="
M84.847046,42.124817 
	C85.007607,42.227028 85.007744,42.419708 84.939453,42.894356 
	C84.758026,42.967678 84.619370,42.767639 84.545029,42.546024 
	C84.516563,42.461151 84.635071,42.326984 84.847046,42.124817 
z"/>
<path fill="#F5D65F" opacity="1.000000" stroke="none" 
	d="
M85.449738,53.065639 
	C85.324036,52.368084 85.432777,51.397175 85.851624,50.214764 
	C86.002548,50.932938 85.843369,51.862610 85.449738,53.065639 
z"/>
<path fill="#FBD125" opacity="1.000000" stroke="none" 
	d="
M21.139706,75.248268 
	C21.671610,75.365822 22.284065,75.755722 22.950401,76.431648 
	C22.409607,76.318657 21.814930,75.919640 21.139706,75.248268 
z"/>
<path fill="#FEF6B4" opacity="1.000000" stroke="none" 
	d="
M34.111923,77.282806 
	C34.715118,77.320168 35.346470,77.681267 36.049278,78.322670 
	C35.460514,78.270836 34.800297,77.938690 34.111923,77.282806 
z"/>
<path fill="#F8DF5C" opacity="1.000000" stroke="none" 
	d="
M50.981766,78.645668 
	C50.965538,78.214325 51.248890,77.743057 51.791153,77.164398 
	C51.793819,77.573257 51.537582,78.089493 50.981766,78.645668 
z"/>
<path fill="#EFE692" opacity="1.000000" stroke="none" 
	d="
M55.000664,43.528934 
	C51.244289,39.683826 51.729557,34.637997 52.718880,29.262863 
	C53.011547,28.971067 53.005573,28.996696 53.003719,29.349361 
	C53.652889,31.148066 54.303909,32.594105 54.954929,34.040146 
	C54.975189,37.052807 54.995449,40.065468 55.000664,43.528934 
z"/>
<path fill="#FAF8D0" opacity="1.000000" stroke="none" 
	d="
M54.980690,33.642689 
	C54.303909,32.594105 53.652889,31.148066 53.011929,29.345070 
	C53.683479,30.407152 54.344967,31.826191 54.980690,33.642689 
z"/>
</svg>